<?xml version="1.0" encoding="utf-8"?>
<!-- Generator: Adobe Illustrator 27.2.0, SVG Export Plug-In . SVG Version: 6.00 Build 0)  -->
<svg version="1.1" id="Layer_1" xmlns="http://www.w3.org/2000/svg" xmlns:xlink="http://www.w3.org/1999/xlink" x="0px" y="0px"
	 viewBox="0 0 754.5 544" style="enable-background:new 0 0 754.5 544;" xml:space="preserve">
<style type="text/css">
	.st0{fill:#F2F2F2;}
	.st1{fill:#E6E6E6;}
	.st2{fill:#FFFFFF;}
	.st3{fill:#2F2E41;}
	.st4{fill:#9E616A;}
	.st5{fill:#3F3D56;}
	.st6{fill:#CACACA;}
	.st7{fill:#CD75CF;}
</style>
<path class="st0" d="M329.3,479.6l1.1-25.7c11.9-6.4,25.2-9.7,38.7-9.8c-18.6,15.2-16.3,44.5-28.9,65c-8.1,12.9-21.6,21.4-36.6,23.1
	l-15.6,9.5c-4.3-24.1,2.1-48.9,17.6-67.8c4.4-5.2,9.3-9.8,14.9-13.8C324.3,469.9,329.3,479.6,329.3,479.6z"/>
<path class="st1" d="M428.3,121.8c0.4,5.8,2.1,11.5,5,16.6c6.1,10.8,16.6,18.6,28,23.2c14.1,5.8,29.9,6,44.9,4.7
	c13.9-1.2,27.7-4,41.7-4.5c10.8-0.3,21.6-0.1,32.4,0.8c20.9,1.5,41.8,4.2,62.5,7.6c5.6,0.9,11.2,1.9,16.8,2.9c0.5,0,1.1,0.1,1.6,0.3
	c0.1,0,0.3,0,0.4,0.1c0.2,0.1-0.7-0.3-0.2,0.2c0.7,0.8,1.4,1.6,1.9,2.5l7.6,9.8c2.2,2.8,4.2,6.3,7.1,8.5c4.1,3.2,9.7,3.5,14.2,1
	c2.3-1.4,4.1-3.5,5.3-6c1.8-3.2,3.9-6.3,6.3-9c9.1-10.6,21.7-17.1,32.3-26.1c5.1-4.1,9.5-9.1,12.9-14.8c2.9-5.1,4.7-10.7,5.3-16.6
	c1.3-11.9-2.4-24-8.5-34.1c-6.7-10.8-16.2-19.6-27.6-25.3c-12.8-6.5-27-9.7-41.2-11.3c-15.1-1.7-30.3-1.7-45.5-1.5
	c-17,0.2-34,0.9-50.9,2.2c-17,1.3-33.9,3.2-50.7,5.6c-16.1,2.3-32.5,4.7-48.3,8.9c-14,3.6-27.9,9.3-38.3,19.6
	C434,96,427.5,108.5,428.3,121.8z"/>
<path class="st2" d="M502.1,74.1c-15.1,2.8-30.9,6.2-43.5,14.4c-12.5,8.2-20.1,21-19.4,32.7c1.1,17.1,19.2,29.8,35.8,33.2
	c15.8,3.2,32.3,1,49.8-1.3c3.9-0.5,7.9-1,11.8-1.5c43-5,123.7,10.3,127.1,11l3.6,0.7l18.8,24.2c4.3-9.5,11.7-18,19.6-24.3
	c3.6-2.9,7.4-5.6,11-8.2c9.3-6.6,18.1-12.9,23-21.5c10.6-18.7-1.9-44.8-19.7-56.5c-20.1-13.2-46.5-15.3-72.1-15.5c-2.7,0-5.3,0-8,0
	C593.6,61.5,547.5,65.7,502.1,74.1z"/>
<path class="st1" d="M490,94.7c0-2.2,1.8-4,3.9-4c0,0,0,0,0,0h181.5c2.2,0,3.9,1.8,3.9,3.9c0,2.2-1.8,3.9-3.9,3.9H494
	C491.8,98.7,490,96.9,490,94.7z"/>
<path class="st1" d="M490,119c0-2.2,1.8-4,3.9-4l0,0h181.5c2.2,0,3.9,1.8,3.9,4c0,2.2-1.8,3.9-4,3.9H494
	C491.8,122.9,490,121.2,490,119z"/>
<path class="st1" d="M650.4,143.2c0-2.2,1.8-4,3.9-4h21.1c2.2,0,3.9,1.8,3.9,3.9c0,2.2-1.8,3.9-3.9,3.9h-21.1
	C652.1,147.2,650.4,145.4,650.4,143.2z"/>
<path class="st3" d="M253.4,75.5c-3.8-8.8-11.5-15.4-20.9-17.8c-10.2-2.7-25.2,1.4-32.9,7.2c-14.1,10.6-17.5,47.2-7.8,58.8
	c1.9-0.1,8.6-0.1,10.5-0.2l2.8-7v6.9c15.2-0.4,31-0.1,46.8,0.1C253.3,115.4,256.7,83.4,253.4,75.5z"/>
<polygon class="st4" points="250.9,516.5 264.7,516.5 271.3,463 250.9,463.1 "/>
<polygon class="st4" points="129.6,507.9 143,511.4 162.9,461.3 143.1,456.2 "/>
<polygon class="st5" points="205.9,188.3 202.8,196.5 203.4,204.7 264.9,225.9 261.8,190.2 254.9,182.1 "/>
<circle class="st4" cx="232.3" cy="93" r="21.9"/>
<path class="st3" d="M247.4,64.4c-13-7.9-29.9-3.8-37.9,9.2c-2.7,4.5-4.1,9.6-4,14.9c12,3.1,24.7,4.3,38.2,0.7l3.1-7.6l1.8,7.6
	c4.1,2.9,8.1,2.9,12,0C260.9,79.2,255.9,69.7,247.4,64.4z"/>
<path class="st3" d="M247.4,509.6l21.9-1.3v9.4l20.8,14.4c2.7,1.8,3.3,5.5,1.5,8.2c-1.1,1.6-2.9,2.5-4.8,2.5h-26.1l-4.5-9.3
	l-1.8,9.3h-9.8L247.4,509.6z"/>
<path class="st3" d="M126.8,500.1l21.5,4.3l-2.4,9.1l16.5,19.2c2.1,2.5,1.8,6.2-0.6,8.3c-1.5,1.3-3.4,1.7-5.3,1.2l-25.2-6.6l-2-10.1
	l-4,8.5l-9.5-2.5L126.8,500.1z"/>
<path class="st3" d="M131.3,474.3l40.6-83.4l12.7-101.6c-8.8-16.3,7.5-49.5,7.5-49.5v-13.9l63.2,11.9v0
	c12.9,35.3,19.2,72.6,18.5,110.2l-2.5,135h0.8c2.8,0,5,2.2,5,5s-2.2,5-5,5h-25c-2.8,0-5-2.2-5-5s2.2-5,5-5h0.6l-17.9-171.8
	L209,395.9l-50.4,78c2.7,0.2,4.8,2.6,4.6,5.4c-0.2,2.6-2.4,4.6-5,4.6h-25c-2.8,0-5-2.2-5-5C128.1,476.9,129.4,475,131.3,474.3z"/>
<path class="st5" d="M186.5,248.3L186.5,248.3c0.4-1.7,1.9-2.9,3.6-3c0.8-9.5,6.3-70.6,6.5-72.4l0-0.1l1.6-34.1
	c0.1-2.6,2.1-4.6,4.7-4.8l8.4-0.6c0.2,0,0.4-0.2,0.4-0.4c0-3.9,3.2-7.1,7.1-7.1c0,0,0,0,0,0h24.9c3.3,0,6.2,2.5,6.6,5.8
	c0,0.2,0.2,0.4,0.4,0.4l0,0c5.9-0.1,10.9,4.1,11.9,9.8c3.4,19.8,10.2,64.8,6.9,89.9c-1.2,8.7-0.6,21.8-0.2,29.1
	c0.1,1.4-0.4,2.8-1.3,3.9c2.1,0.6,3.3,2.7,2.8,4.8h0c-0.5,2.1-2.7,3.4-4.9,2.9l-76.6-19.3C187.2,252.6,185.9,250.4,186.5,248.3z"/>
<path class="st6" d="M418.6,544H1.2c-0.7,0-1.2-0.5-1.2-1.2c0-0.7,0.5-1.2,1.2-1.2c0,0,0,0,0,0h417.4c0.7,0,1.2,0.5,1.2,1.2
	S419.2,544,418.6,544C418.6,544,418.6,544,418.6,544z"/>
<path class="st5" d="M190,305.7c3.8-3.8,3.8-10,0-13.8c-0.4-0.4-0.8-0.8-1.3-1.1l15.5-77.2l-17.2,5.5l-12.4,74.7
	c-2.8,4.6-1.3,10.7,3.4,13.5C181.8,309.6,186.8,309,190,305.7z"/>
<path class="st5" d="M212.9,142.4l-10.6-8c0,0-9.4-0.7-11.1,16.3s-5.1,50-5.1,50l-16.3,75.5l22.6,5l17.5-81.4l10.5-24.2L212.9,142.4
	z"/>
<path class="st5" d="M351.2,164.3c-5-2-10.7,0.5-12.6,5.5c-0.2,0.5-0.4,1.1-0.5,1.7l-77,16.6l11.9,13.5l73.4-18.4
	c5.4,0.7,10.3-3.1,11-8.5C358,170.2,355.5,165.9,351.2,164.3L351.2,164.3z"/>
<path class="st5" d="M249,206.1c-2.5-2.4-4.3-5.3-5.4-8.6l-14.1-42.3c-3.1-9.3,1.9-19.4,11.3-22.5c3.5-1.2,7.2-1.2,10.7-0.2
	c7.2,2.2,12.3,8.6,12.7,16.1L266,182l56.8-8.3l14.8,13.6l-0.8,0.3c-3.1,1.1-74.9,25.4-86.8,19.2C249.6,206.5,249.3,206.3,249,206.1z
	"/>
<path class="st7" d="M353.5,137.4c-0.1,0-0.2,0-0.3,0c-2.4-0.1-4.5-1.3-5.8-3.3c-4.7-7.1-10.6-13.4-17.2-18.7
	c-4-3.2-8.3-6.2-12.4-9.2c-10.6-7.5-20.5-14.6-26-24.3c-12-21.3,2.1-50.9,22.4-64.2C336.8,2.7,366.7,0.4,395.5,0c3,0,6,0,9,0l0,0
	c52,0,104,4.8,155.1,14.2c17,3.1,34.8,7,49.1,16.3c14.2,9.3,22.9,23.9,22,37.2c-1.2,19.5-21.9,34-40.7,37.8
	c-17.9,3.6-36.5,1.2-56.2-1.4c-4.3-0.6-8.8-1.2-13.3-1.7c-48.3-5.6-139.1,11.6-143,12.4l-3.8,0.7l-14.8,19
	C357.8,136.3,355.7,137.4,353.5,137.4z"/>
<path class="st2" d="M568.7,42.4H364.4c-2.5,0-4.4-2-4.4-4.4c0-2.5,2-4.4,4.4-4.4h204.3c2.5,0,4.4,2,4.4,4.4
	C573.1,40.4,571.1,42.4,568.7,42.4z"/>
<path class="st2" d="M568.7,69.7H364.4c-2.5,0-4.4-2-4.4-4.4c0-2.5,2-4.4,4.4-4.4h204.3c2.5,0,4.4,2,4.4,4.4
	C573.1,67.7,571.1,69.7,568.7,69.7z"/>
<path class="st2" d="M388.2,96.9h-23.8c-2.5,0-4.4-2-4.4-4.4s2-4.4,4.4-4.4h23.8c2.5,0,4.4,2,4.4,4.4S390.7,96.9,388.2,96.9z"/>
</svg>
