<?xml version="1.0" encoding="UTF-8"?>
<svg id="Layer_1" data-name="Layer 1" xmlns="http://www.w3.org/2000/svg" viewBox="0 0 2146.17 328.5">
  <defs>
    <style>
      .cls-1 {
        fill: #cd75cf;
        stroke: #cd75cf;
        stroke-miterlimit: 10;
        stroke-width: 8px;
      }

      .cls-2 {
        fill: #181818;
        font-family: LexendDeca-Medium, 'Lexend Deca';
        font-size: 300px;
        font-variation-settings: 'wght' 500;
        font-weight: 500;
      }
    </style>
  </defs>
  <text class="cls-2" transform="translate(351.6 255)"><tspan x="0" y="0">monkeysign</tspan></text>
  <path class="cls-1" d="m270.79,201.51c-4.04-1.7-8.74-2.69-13.67-2.69-5.54,0-10.79,1.25-15.48,3.48l.22-.1-55.51,24.93c.03-.45.25-.84.25-1.29-.14-13.17-10.85-23.79-24.04-23.79-.66,0-1.32.03-1.96.08h.09s-36.35,0-36.35,0l-45.73-13.4c-.6-.19-1.28-.3-1.99-.3h-20.88v-7.27c0-3.98-3.23-7.21-7.21-7.21H11.23c-3.98,0-7.21,3.23-7.21,7.21h0v117.29c0,3.98,3.23,7.21,7.21,7.21h37.31c3.98,0,7.21-3.23,7.21-7.21h0v-9.66c17.47,2.73,33.1,7.13,47.91,13.13l-1.43-.52c11.05,4,23.81,6.3,37.11,6.3h.2,0,.16c15.41,0,30.1-3.06,43.5-8.63l-.75.28c11.94-5.31,22.08-10.91,31.68-17.28l-.79.49c3.25-2.01,6.48-4.02,9.74-5.95,15.69-9.29,28.3-17.45,39.67-25.67,5.56-3.96,10.41-7.87,15.02-12.04l-.13.12c3.58-2.9,6.45-6.55,8.37-10.72l.08-.18c.3-.76.46-1.63.46-2.56,0-.55-.06-1.08-.17-1.59v.05c-1.39-9.77-7.24-17.93-15.39-22.45l-.15-.08h-.02Zm-229.47,89.75h-22.9v-102.89h22.9v102.89Zm226.15-62.45c-3.96,3.55-8.26,7-12.76,10.2l-.45.31c-10.98,7.94-23.23,15.85-38.57,24.94-3.34,1.97-6.64,4.02-9.96,6.06-8.21,5.51-17.65,10.76-27.52,15.24l-1.25.51c-11.07,4.55-23.92,7.19-37.39,7.19-11.56,0-22.67-1.95-33.01-5.52l.71.21c-14.94-6.23-32.31-11-50.42-13.52l-1.12-.12v-71.44h19.81l45.73,13.4c.6.19,1.28.3,1.99.3h37.41c8.48,0,11.5,5.01,11.5,9.31s-3.02,9.31-11.5,9.31h-65.42c-3.98,0-7.21,3.23-7.21,7.21s3.23,7.21,7.21,7.21h74.8c1.06,0,2.06-.23,2.95-.65l-.04.02,74.89-33.63c2.77-1.27,6-2.01,9.42-2.01,2.55,0,5,.41,7.28,1.17l-.16-.05c3.68,2.21,6.32,5.8,7.23,10.05l.02.11c-1.31,1.53-2.67,2.9-4.12,4.18l-.05.04h0Zm11.84-202.11h-37.31c-3.98,0-7.21,3.23-7.21,7.21h0v9.71c-17.43-2.68-33.08-7.11-47.86-13.2l1.37.5c-11.14-3.99-23.98-6.28-37.37-6.28-15.43,0-30.15,3.06-43.58,8.61l.76-.28c-11.93,5.3-22.07,10.91-31.66,17.29l.78-.49c-3.24,2-6.48,4.01-9.74,5.94-15.81,9.37-28.42,17.52-39.65,25.66-5.53,3.92-10.36,7.8-14.94,11.95l.13-.12c-3.62,2.92-6.51,6.59-8.47,10.79l-.08.18c-.31.78-.49,1.68-.49,2.62,0,.54.06,1.06.16,1.56v-.05c1.4,9.76,7.25,17.91,15.4,22.44l.15.08c3.62,1.79,7.88,2.83,12.38,2.83h.37-.02c5.88-.08,11.44-1.36,16.48-3.62l-.26.11,55.51-24.95c-.03.45-.25.85-.25,1.3.13,13.17,10.85,23.8,24.04,23.8.66,0,1.31-.03,1.96-.08h-.09s36.35,0,36.35,0l45.73,13.4c.6.18,1.29.29,2,.29h20.86v7.27c0,3.98,3.23,7.21,7.21,7.21h37.31c3.98,0,7.21-3.23,7.21-7.21h0V33.9c0-3.98-3.23-7.21-7.21-7.21h0Zm-64.31,102.8l-45.73-13.39c-.6-.18-1.29-.29-2-.29h-37.4c-8.48,0-11.49-5.02-11.49-9.32s3.01-9.32,11.49-9.32h65.42c3.98,0,7.21-3.23,7.21-7.21s-3.23-7.21-7.21-7.21h-74.77c-1.07,0-2.08.23-3,.64l.05-.02-74.87,33.66c-2.76,1.27-6,2.02-9.4,2.02-2.56,0-5.02-.41-7.3-1.19l.16.05c-3.67-2.2-6.31-5.8-7.22-10.04l-.02-.11c1.31-1.53,2.67-2.91,4.14-4.18l.05-.04c3.97-3.58,8.27-7.03,12.78-10.21l.43-.29c10.88-7.89,23.13-15.81,38.56-24.94,3.34-1.99,6.66-4.04,9.97-6.09,8.21-5.51,17.64-10.75,27.52-15.21l1.24-.5c11.08-4.55,23.93-7.21,37.41-7.21,11.55,0,22.65,1.94,32.98,5.52l-.71-.21c14.93,6.22,32.3,11,50.39,13.54l1.13.13v71.43l-19.82-.02Zm57.1,14.48h-22.9V41.11h22.9v102.87Z"/>
</svg>